{"title":"Ouija 2014 HC 720p HDRip x264 AC3 TiTAN","uid":11404648,"size":1701601021,"categoryP":"video","categoryS":"hd___movies","magnet":"?xt=urn:btih:0bfcb245d833042deae9a064f79641858cbcd048&amp;dn=Ouija+2014+HC+720p+HDRip+x264+AC3+TiTAN&amp;tr=udp%3A%2F%2Ftracker.openbittorrent.com%3A80&amp;tr=udp%3A%2F%2Fopen.demonii.com%3A1337&amp;tr=udp%3A%2F%2Ftracker.coppersurfer.tk%3A6969&amp;tr=udp%3A%2F%2Fexodus.desync.com%3A6969","seeders":1,"leechers":0,"uploader":"TvTeam","files":3,"time":1415463537,"description":" &lt;a href=&quot;http://www.torrenting.com&quot; rel=&quot;nofollow&quot; target=&quot;_NEW&quot;&gt;http://www.torrenting.com&lt;/a&gt;\n\nSign up is OPEN - for time being. Come and have fun.\n\n\n------------------------------------------------------------------------[IMG]http://i.imgur.com/1LbZR3g.jpg[/IMG]\n &lt;a href=&quot;\nhttp://www.imdb.com/title/tt1204977/&quot; rel=&quot;nofollow&quot; target=&quot;_NEW&quot;&gt;\nhttp://www.imdb.com/title/tt1204977/&lt;/a&gt;\n\nSource 1080p W-DL\n\nGeneral\n\nFormat                                   : Matroska\nFormat version                           : Version 2\nFile size                                : 1.58 GiB\nDuration                                 : 1h 29mn\nOverall bit rate mode                    : Variable\nOverall bit rate                         : 2 547 Kbps\nEncoded date                             : UTC 2014-11-08 00:47:20\n\nVideo\nID                                       : 1\nFormat                                   : AVC\nFormat/Info                              : Advanced Video Codec\nFormat profile                           : &lt;a class=&quot;__cf_email__&quot; href=&quot;/cdn-cgi/l/email-protection&quot; data-cfemail=&quot;e6ae8f818ea6aad2c8d7&quot;&gt;[email&amp;#160;protected]&lt;/a&gt;&lt;script cf-hash='f9e31' type=&quot;text/javascript&quot;&gt;\n/* &lt;![CDATA[ */!function(){try{var t=&quot;currentScript&quot;in document?document.currentScript:function(){for(var t=document.getElementsByTagName(&quot;script&quot;),e=t.length;e--;)if(t[e].getAttribute(&quot;cf-hash&quot;))return t[e]}();if(t&amp;&amp;t.previousSibling){var e,r,n,i,c=t.previousSibling,a=c.getAttribute(&quot;data-cfemail&quot;);if(a){for(e=&quot;&quot;,r=parseInt(a.substr(0,2),16),n=2;a.length-n;n+=2)i=parseInt(a.substr(n,2),16)^r,e+=String.fromCharCode(i);e=document.createTextNode(e),c.parentNode.replaceChild(e,c)}}}catch(u){}}();/* ]]&gt; */&lt;/script&gt;\nFormat settings, CABAC                   : Yes\nFormat settings, ReFrames                : 3 frames\nCodec ID                                 : V_MPEG4/ISO/AVC\nDuration                                 : 1h 29mn\nBit rate mode                            : Variable\nBit rate                                 : 2 177 Kbps\nMaximum bit rate                         : 40.0 Mbps\nWidth                                    : 1 280 pixels\nHeight                                   : 528 pixels\nDisplay aspect ratio                     : 2.40:1\nFrame rate mode                          : Constant\nFrame rate                               : 23.976 fps\nColor space                              : YUV\nChroma subsampling                       : 4:2:0\nBit depth                                : 8 bits\nScan type                                : Progressive\nBits/(Pixel*Frame)                       : 0.134\nStream size                              : 1.35 GiB (85%)\nColor primaries                          : BT.709\nTransfer characteristics                 : BT.709\nMatrix coefficients                      : BT.709\n\nAudio\nID                                       : 2\nFormat                                   : AC-3\nFormat/Info                              : Audio Coding 3\nMode extension                           : CM (complete main)\nFormat settings, Endianness              : Big\nCodec ID                                 : A_AC3\nDuration                                 : 1h 29mn\nBit rate mode                            : Constant\nBit rate                                 : 320 Kbps\nChannel(s)                               : 2 channels\nChannel positions                        : Front: L R\nSampling rate                            : 48.0 KHz\nBit depth                                : 16 bits\nCompression mode                         : Lossy\nStream size                              : 204 MiB (13%)\nLanguage                                 : English\nDefault                                  : Yes\nForced                                   : No\n\n[IMG]http://i.imgur.com/D3uKnIm.png[/IMG]\n[IMG]http://i.imgur.com/Mx5Hi1I.jpg[/IMG]\n[IMG]http://i.imgur.com/Mx5Hi1I.jpg[/IMG]\n[IMG]http://i.imgur.com/rGqm0gN.jpg[/IMG]\n[IMG]http://i.imgur.com/3naDUyg.png[/IMG]\n[IMG]http://i.imgur.com/f2KeL10.png[/IMG]","torrent":{"xt":"urn:btih:0bfcb245d833042deae9a064f79641858cbcd048","amp;dn":"Ouija+2014+HC+720p+HDRip+x264+AC3+TiTAN","amp;tr":["udp%3A%2F%2Ftracker.openbittorrent.com%3A80","udp%3A%2F%2Fopen.demonii.com%3A1337","udp%3A%2F%2Ftracker.coppersurfer.tk%3A6969","udp%3A%2F%2Fexodus.desync.com%3A6969"],"infoHash":"0bfcb245d833042deae9a064f79641858cbcd048","infoHashBuffer":{"type":"Buffer","data":[11,252,178,69,216,51,4,45,234,233,160,100,247,150,65,133,140,188,208,72]},"announce":[],"urlList":[]}}